HIERARCHY
ROOT joint_Root
{
	OFFSET 0.0 0.0 0.0
	CHANNELS 6 Xposition Yposition Zposition Zrotation Xrotation Yrotation 
	JOINT Hips
	{
		OFFSET 4.5925 91.4895 -427.239
		CHANNELS 6 Xposition Yposition Zposition Zrotation Xrotation Yrotation 
		JOINT Spine
		{
			OFFSET 15.7357 0.0 0.0
			CHANNELS 6 Xposition Yposition Zposition Zrotation Xrotation Yrotation 
			JOINT Chest
			{
				OFFSET 8.98455 -0.406207 0.0
				CHANNELS 6 Xposition Yposition Zposition Zrotation Xrotation Yrotation 
				JOINT Neck
				{
					OFFSET 16.3773 0.0 0.0
					CHANNELS 6 Xposition Yposition Zposition Zrotation Xrotation Yrotation 
					JOINT Head
					{
						OFFSET 6.45672 0.0 0.0
						CHANNELS 6 Xposition Yposition Zposition Zrotation Xrotation Yrotation 
						End Site
						{
							OFFSET 0.0 0.0 0.0
						}
					}
				}
				JOINT Shoulder_L
				{
					OFFSET 12.9942 -0.242716 4.98039
					CHANNELS 6 Xposition Yposition Zposition Zrotation Xrotation Yrotation 
					JOINT UpperArm_L
					{
						OFFSET 5.34809 0.0 0.0
						CHANNELS 6 Xposition Yposition Zposition Zrotation Xrotation Yrotation 
						JOINT LowerArm_L
						{
							OFFSET 24.3286 1.87007e-05 0.0
							CHANNELS 6 Xposition Yposition Zposition Zrotation Xrotation Yrotation 
							JOINT Hand_L
							{
								OFFSET 22.2916 0.0 0.0
								CHANNELS 6 Xposition Yposition Zposition Zrotation Xrotation Yrotation 
								End Site
								{
									OFFSET 0.0 0.0 0.0
								}
							}
						}
					}
				}
				JOINT Shoulder_R
				{
					OFFSET 12.9945 -0.242716 -4.98039
					CHANNELS 6 Xposition Yposition Zposition Zrotation Xrotation Yrotation 
					JOINT UpperArm_R
					{
						OFFSET -5.34813 0.0 0.0
						CHANNELS 6 Xposition Yposition Zposition Zrotation Xrotation Yrotation 
						JOINT LowerArm_R
						{
							OFFSET -24.3289 0.000322201 0.0
							CHANNELS 6 Xposition Yposition Zposition Zrotation Xrotation Yrotation 
							JOINT Hand_R
							{
								OFFSET -22.2915 -0.000108084 0.0
								CHANNELS 6 Xposition Yposition Zposition Zrotation Xrotation Yrotation 
								End Site
								{
									OFFSET 0.0 0.0 0.0
								}
							}
						}
					}
				}
			}
		}
		JOINT UpperLeg_L
		{
			OFFSET -2.19248 -6.46944 0.0
			CHANNELS 6 Xposition Yposition Zposition Zrotation Xrotation Yrotation 
			JOINT LowerLeg_L
			{
				OFFSET 39.0811 0.0 -1.23785e-05
				CHANNELS 6 Xposition Yposition Zposition Zrotation Xrotation Yrotation 
				JOINT Foot_L
				{
					OFFSET 40.9854 0.0 -1.26872e-05
					CHANNELS 6 Xposition Yposition Zposition Zrotation Xrotation Yrotation 
					JOINT Toes_L
					{
						OFFSET 11.7543 0.0 0.0
						CHANNELS 6 Xposition Yposition Zposition Zrotation Xrotation Yrotation 
						End Site
						{
							OFFSET 0.0 0.0 0.0
						}
					}
				}
			}
		}
		JOINT UpperLeg_R
		{
			OFFSET -2.19251 6.46944 0.0
			CHANNELS 6 Xposition Yposition Zposition Zrotation Xrotation Yrotation 
			JOINT LowerLeg_R
			{
				OFFSET -39.0811 -0.00228153 -0.0401928
				CHANNELS 6 Xposition Yposition Zposition Zrotation Xrotation Yrotation 
				JOINT Foot_R
				{
					OFFSET -40.9854 0.0 0.0
					CHANNELS 6 Xposition Yposition Zposition Zrotation Xrotation Yrotation 
					JOINT Toes_R
					{
						OFFSET -11.7543 0.0 0.0
						CHANNELS 6 Xposition Yposition Zposition Zrotation Xrotation Yrotation 
						End Site
						{
							OFFSET 0.0 0.0 0.0
						}
					}
				}
			}
		}
	}
}
MOTION
Frames:	4
Frame Time:	0.0333333
0.000000 0.000000 0.000000 0.000000 0.000000 -0.000000 -5.911770 91.352500 -487.875000 90.246900 -1.856800 4.274510 15.735700 0.000005 -0.000001 107.024000 84.703600 -107.463000 8.984550 -0.406207 -0.000000 2.378110 3.119510 -0.942555 16.377300 -0.000001 -0.000001 -1.029020 -4.695430 1.619790 6.456720 -0.000001 -0.000000 -9.449330 -7.627520 4.350400 12.994200 -0.242716 4.980390 -90.832800 2.241590 -69.613400 5.348090 -0.000007 -0.000001 -71.456000 21.080900 4.027990 24.328600 0.000019 0.000005 5.272340 27.451400 -11.319300 22.291600 -0.000001 0.000005 7.825010 5.096710 5.184870 12.994500 -0.242716 -4.980390 88.508400 9.157480 -80.708200 -5.348130 -0.000001 -0.000004 -59.729600 30.147800 -14.172900 -24.328900 0.000322 -0.000009 1.432160 3.717620 -21.109900 -22.291500 -0.000108 -0.000004 14.806800 5.382430 -2.373570 -2.192480 -6.469440 -0.000000 -176.537000 -10.128100 -20.229200 39.081100 -0.000007 -0.000012 0.088320 -0.039758 65.761700 40.985400 -0.000006 -0.000013 4.120100 -7.739400 -59.386000 11.754300 -0.000000 0.000003 -0.002547 -0.035367 -18.015000 -2.192510 6.469440 -0.000001 174.254000 30.929700 -177.361000 -39.081100 -0.002282 -0.040193 -0.009280 0.027003 25.001100 -40.985400 0.000008 0.000006 7.958090 15.886300 -72.664400 -11.754300 -0.000006 -0.000006 -0.003072 -0.041415 -18.257400
0.000000 0.000000 0.000000 0.000000 0.000000 -0.000000 -6.016010 91.225400 -485.762000 90.603200 -2.941680 3.471960 15.735700 0.000005 -0.000001 112.743000 84.911300 -113.634000 8.984550 -0.406207 -0.000000 1.655880 3.979920 -1.837840 16.377300 -0.000001 -0.000001 -1.747720 -4.667390 1.091730 6.456720 -0.000001 -0.000000 -10.068700 -8.088340 3.068460 12.994200 -0.242716 4.980390 -90.844200 2.220510 -69.179100 5.348090 -0.000007 -0.000001 -70.404300 18.057700 6.144090 24.328600 0.000019 0.000005 4.404860 27.896100 -9.349990 22.291600 -0.000001 0.000005 9.203010 5.056610 6.085840 12.994500 -0.242716 -4.980390 88.727200 8.419940 -81.372600 -5.348130 -0.000001 -0.000004 -57.692900 28.495900 -17.204500 -24.328900 0.000322 -0.000009 0.895036 1.975490 -24.431800 -22.291500 -0.000108 -0.000004 15.297400 5.394690 -2.764720 -2.192480 -6.469440 -0.000000 -177.696000 -9.453490 -23.398600 39.081100 -0.000007 -0.000012 0.066649 -0.037182 60.840700 40.985400 -0.000006 -0.000013 3.728490 -5.816310 -60.916600 11.754300 -0.000000 0.000003 -0.004239 -0.053906 -18.769700 -2.192510 6.469440 -0.000001 172.921000 31.881100 -175.770000 -39.081100 -0.002282 -0.040193 -0.028237 0.071510 23.807600 -40.985400 0.000008 0.000006 7.701340 18.118800 -73.605200 -11.754300 -0.000006 -0.000006 -0.002948 -0.040011 -18.200300
0.000000 0.000000 0.000000 0.000000 0.000000 -0.000000 -5.987390 91.010600 -483.679000 90.884800 -4.400820 2.560890 15.735700 0.000005 -0.000001 119.816000 84.970300 -121.053000 8.984550 -0.406207 -0.000000 1.022930 5.072430 -2.519810 16.377300 -0.000001 -0.000001 -2.579160 -4.512960 0.634008 6.456720 -0.000001 -0.000000 -10.859200 -8.447360 1.963750 12.994200 -0.242716 4.980390 -90.906000 2.354620 -68.948200 5.348090 -0.000007 -0.000001 -69.505800 15.115800 7.418430 24.328600 0.000019 0.000005 3.612370 29.206000 -7.372820 22.291600 -0.000001 0.000005 10.450900 5.003070 7.249060 12.994500 -0.242716 -4.980390 88.921000 7.856930 -82.155300 -5.348130 -0.000001 -0.000004 -55.269700 26.636800 -19.888200 -24.328900 0.000322 -0.000009 -0.034377 -0.062555 -27.529900 -22.291500 -0.000108 -0.000004 16.121300 5.416880 -3.492430 -2.192480 -6.469440 -0.000000 -178.378000 -8.658650 -25.649200 39.081100 -0.000007 -0.000012 0.050240 -0.037329 53.384500 40.985400 -0.000006 -0.000013 2.693100 -4.019860 -62.085800 11.754300 -0.000000 0.000003 -0.003468 -0.045790 -18.439200 -2.192510 6.469440 -0.000001 172.317000 30.772300 -175.385000 -39.081100 -0.002282 -0.040193 -0.037498 0.092951 23.705400 -40.985400 0.000008 0.000006 7.661960 18.354300 -74.353600 -11.754300 -0.000006 -0.000006 -0.003058 -0.041262 -18.251200
0.000000 0.000000 0.000000 0.000000 0.000000 -0.000000 -5.860520 90.727200 -481.467000 91.035600 -5.715470 1.697370 15.735700 0.000005 -0.000001 125.703000 85.025000 -127.157000 8.984550 -0.406207 -0.000000 0.395300 5.898450 -2.929650 16.377300 -0.000001 -0.000001 -3.373480 -4.218450 0.250405 6.456720 -0.000001 -0.000000 -11.703800 -8.422000 1.040710 12.994200 -0.242716 4.980390 -90.890400 2.307160 -68.889400 5.348090 -0.000007 -0.000001 -69.429500 12.639800 8.502900 24.328600 0.000019 0.000005 2.899880 30.817000 -5.647190 22.291600 -0.000001 0.000005 11.739200 4.948840 8.386060 12.994500 -0.242716 -4.980390 89.098000 7.258970 -82.898400 -5.348130 -0.000001 -0.000004 -53.025900 24.881300 -22.149500 -24.328900 0.000322 -0.000009 -0.787836 -1.362990 -29.996500 -22.291500 -0.000108 -0.000004 17.258500 5.434310 -4.086790 -2.192480 -6.469440 -0.000000 -178.465000 -7.490280 -26.738700 39.081100 -0.000007 -0.000012 0.034108 -0.035871 43.555000 40.985400 -0.000006 -0.000013 1.664580 -2.958820 -61.334700 11.754300 -0.000000 0.000003 -0.002627 -0.036310 -18.053300 -2.192510 6.469440 -0.000001 171.581000 29.751600 -175.045000 -39.081100 -0.002282 -0.040193 -0.052125 0.124957 23.925300 -40.985400 0.000008 0.000006 7.099540 18.944800 -74.688900 -11.754300 -0.000006 -0.000006 -0.384965 -0.484577 -18.783600
